<?xml version="1.0" encoding="utf-8"?>
<!-- Generator: Adobe Illustrator 27.3.1, SVG Export Plug-In . SVG Version: 6.00 Build 0)  -->
<svg version="1.1" id="Layer_1" xmlns="http://www.w3.org/2000/svg" xmlns:xlink="http://www.w3.org/1999/xlink" x="0px" y="0px"
	 viewBox="0 0 936 576" style="enable-background:new 0 0 936 576;" xml:space="preserve">
<g>
	<g>
		<g>
			<g>
				<path d="M36.8,211.1h74.9l2.3,30.2h-3.3c-2.1-10.1-4.8-17.1-8.2-21c-3.4-3.9-7.8-5.8-13.3-5.8h-7.1v82h15.7v3.4h-47v-3.4h15.7
					v-82h-7.2c-5.5,0-10,1.9-13.3,5.8c-3.4,3.9-6.1,10.9-8.2,21h-3.3L36.8,211.1z"/>
				<path d="M187.9,214.5v38.1h7.9c2.8,0,5.2-0.3,7.1-0.8c1.9-0.6,3.7-2,5.2-4.5c1.6-2.4,2.4-6.2,2.7-11.4h3.4v37.6h-3.4
					c-0.4-7.1-1.7-11.9-4.1-14.1c-2.4-2.3-6-3.4-10.9-3.4h-7.9v40.6h17.9c10.1,0,17.2-2.2,21.1-6.5c3.9-4.3,6.2-10.9,7-19.9h3.3
					l-0.9,29.7h-77.9v-3.4h14v-82h-14v-3.4h74.7l1.5,23.7h-3.3c-1.1-7.2-3.5-12.4-7-15.6c-3.5-3.2-9.4-4.8-17.7-4.8h-18.7V214.5z"/>
				<path d="M338.7,249.3l33.9,47.2h11v3.4h-44.2v-3.4h15l-25.1-35.1l-27.5,35.2H319v3.4h-34.7v-3.4h13.3l29.5-38l-31.7-44h-11.1
					v-3.4h43.8v3.4h-14.5l22.9,31.7l25-31.7h-15.2v-3.4h31.9v3.4h-12.4L338.7,249.3z"/>
				<path d="M427,211.1h74.9l2.3,30.2h-3.3c-2.1-10.1-4.8-17.1-8.2-21c-3.4-3.9-7.8-5.8-13.3-5.8h-7.1v82H488v3.4h-47v-3.4h15.7v-82
					h-7.1c-5.5,0-10,1.9-13.3,5.8c-3.4,3.9-6.1,10.9-8.2,21h-3.3L427,211.1z"/>
				<path d="M621.7,214.5h-14.4v-3.4h31.4v3.4h-13.8v53.7c0,7.8-0.6,13.5-1.7,17.2c-1.2,3.7-3.3,6.8-6.3,9.3
					c-3.1,2.5-6.7,4.3-11,5.5c-4.3,1.1-8.7,1.7-13.2,1.7c-9.6,0-16.6-1.5-21.1-4.6c-4.5-3-7.2-6.8-8.2-11.3s-1.5-10.4-1.5-17.9
					v-53.7h-12.7V211h42v3.4h-13.8v52.2c0,7.2,0.3,12.8,1,16.9c0.7,4.1,2.4,7.5,5.3,10.3c2.9,2.7,7.4,4.1,13.7,4.1
					c5.1,0,9.6-1,13.6-3.1s6.8-4.9,8.4-8.4c1.6-3.5,2.4-10.1,2.4-19.7v-52.2H621.7z"/>
				<path d="M849.2,214.5v38.1h7.9c2.8,0,5.2-0.3,7.1-0.8c1.9-0.6,3.7-2,5.2-4.5c1.6-2.4,2.4-6.2,2.7-11.4h3.4v37.6h-3.4
					c-0.4-7.1-1.7-11.9-4.1-14.1c-2.4-2.3-6-3.4-10.9-3.4h-7.9v40.6h17.9c10.1,0,17.2-2.2,21.1-6.5c3.9-4.3,6.2-10.9,7-19.9h3.3
					l-0.9,29.7h-77.9v-3.4h14v-82h-14v-3.4h74.7l1.5,23.7h-3.3c-1.1-7.2-3.5-12.4-7-15.6c-3.5-3.2-9.4-4.8-17.7-4.8h-18.7V214.5z"/>
			</g>
			<g>
				<g>
					<path d="M248.3,357.2h-11v5.1h9.8v3.1h-9.8v5.3h11.2v3.1h-14.7v-19.6h14.5V357.2z"/>
					<path d="M280.2,354.1h3.4v19.6h-2.9l-10.8-13.9v13.9h-3.4v-19.6h3.2l10.5,13.5L280.2,354.1L280.2,354.1z"/>
					<path d="M310.9,373.7h-3.5v-16.4h-6.2v-3.2h15.9v3.2h-6.2L310.9,373.7L310.9,373.7z"/>
					<path d="M350.9,373.7h-3.6l-2-4.7H336l-2,4.7h-3.5l8.6-19.7h3.2L350.9,373.7z M340.7,358.1l-3.4,7.8h6.7L340.7,358.1z"/>
					<path d="M368.3,354.1h3.4v16.4H382v3.1h-13.7V354.1z"/>
					<path d="M431,374c-5.7,0-10-4.4-10-10.1c0-5.6,4.2-10.1,10.1-10.1c3.6,0,5.8,1.3,7.7,3l-2.2,2.5c-1.6-1.5-3.2-2.4-5.5-2.4
						c-3.7,0-6.5,3.1-6.5,6.9c0,3.9,2.7,7,6.5,7c2.4,0,3.9-1,5.6-2.5l2.2,2.2C436.9,372.7,434.7,374,431,374z"/>
					<path d="M493.7,354.1h3.4v16.4h10.3v3.1h-13.7L493.7,354.1L493.7,354.1z"/>
					<path d="M525,354.1h3.4v16.4h10.3v3.1H525V354.1z"/>
					<path d="M570.8,357.2h-11.1v5.1h9.8v3.1h-9.8v5.3h11.2v3.1h-14.6v-19.6h14.5V357.2z"/>
					<path d="M598.1,374c-5.7,0-10-4.4-10-10.1c0-5.6,4.2-10.1,10.1-10.1c3.6,0,5.8,1.3,7.7,3l-2.2,2.5c-1.6-1.5-3.2-2.4-5.5-2.4
						c-3.7,0-6.5,3.1-6.5,6.9c0,3.9,2.7,7,6.5,7c2.4,0,3.9-1,5.6-2.5l2.2,2.2C604,372.7,601.8,374,598.1,374z"/>
					<path d="M631.9,373.7h-3.5v-16.4h-6.2v-3.2h15.9v3.2h-6.2V373.7z"/>
					<path d="M659.4,354.1v19.6H656v-19.6H659.4z"/>
					<path d="M730,354.1h3.4v19.6h-2.9l-10.8-13.9v13.9h-3.4v-19.6h3.2l10.5,13.5V354.1z"/>
				</g>
			</g>
		</g>
	</g>
	<g>
		<path d="M297.5,399c-1.5,0-2.7,1-3.1,2.3h-4.7c0.5-4.5,3.9-7,8-7c4.3,0,7.5,3.1,7.5,6.8c0,2.3-1.2,4.2-3.6,5.4c3.2,1,5,3.4,5,6.6
			c0,4.7-3.8,8.3-9.1,8.3c-5,0-8.4-3.2-8.7-8.5h4.9c0.4,2.6,1.9,3.9,4.1,3.9c2.4,0,4-1.8,4-3.8c0-2.3-2.1-4.2-5.9-4.2v-4.2
			c3-0.3,4.5-1.4,4.5-3.2C300.1,400.1,299.1,399,297.5,399z"/>
		<path d="M329.9,399c-1.5,0-2.7,1-3.1,2.3h-4.7c0.5-4.5,3.9-7,8-7c4.3,0,7.5,3.1,7.5,6.8c0,2.3-1.2,4.2-3.6,5.4c3.2,1,5,3.4,5,6.6
			c0,4.7-3.8,8.3-9.1,8.3c-5,0-8.4-3.2-8.7-8.5h4.9c0.4,2.6,1.9,3.9,4.1,3.9c2.4,0,4-1.8,4-3.8c0-2.3-2.1-4.2-5.9-4.2v-4.2
			c3-0.3,4.5-1.4,4.5-3.2C332.5,400.1,331.5,399,329.9,399z"/>
		<path d="M354.5,395h17v2.6l-11.7,23.9l-4.2-2l9.7-19.8h-10.8V395z"/>
		<path d="M392.5,418.6c0,1.5-1.2,2.8-2.7,2.8s-2.8-1.3-2.8-2.8s1.3-2.7,2.8-2.7S392.5,417,392.5,418.6z"/>
		<path d="M445.5,395h12.1v4.5h-8.4l-1,4.7c0.4-0.1,1-0.3,1.7-0.3c4.8,0,8.2,3.6,8.2,8.6s-3.9,8.9-8.9,8.9c-4.3,0-7.8-2.5-8.8-7h5.2
			c0.8,1.6,2.1,2.4,3.7,2.4c2.1,0,3.9-1.6,3.9-4.2c0-2.4-1.7-4-3.6-4c-1.3,0-2.2,0.6-3.1,1.5l-4-0.9L445.5,395z"/>
		<path d="M512,418.6c0,1.5-1.2,2.8-2.7,2.8s-2.8-1.3-2.8-2.8s1.3-2.7,2.8-2.7S512,417,512,418.6z"/>
		<path d="M528.7,395h17v2.6L534,421.5l-4.2-2l9.7-19.8h-10.8V395z"/>
		<path d="M568.9,399c-1.5,0-2.7,1-3.1,2.3h-4.7c0.5-4.5,3.9-7,8-7c4.3,0,7.5,3.1,7.5,6.8c0,2.3-1.2,4.2-3.6,5.4c3.2,1,5,3.4,5,6.6
			c0,4.7-3.8,8.3-9.1,8.3c-5,0-8.4-3.2-8.7-8.5h4.9c0.4,2.6,1.9,3.9,4.1,3.9c2.4,0,4-1.8,4-3.8c0-2.3-2.1-4.2-5.9-4.2v-4.2
			c3-0.3,4.5-1.4,4.5-3.2C571.6,400.1,570.5,399,568.9,399z"/>
	</g>
</g>
<g>
	<polygon points="715.2,276 715.2,276 715.2,211.1 685.8,211.1 685.8,214.5 699.6,214.5 699.6,296.5 685.8,296.5 685.8,299.9 
		729,299.9 729,296.5 715.2,296.5 	"/>
	<path d="M768.7,296.7c-2.4,0-4.2-0.8-5.5-2.4c-1.3-1.6-2-5.3-2-11c0-10-2.3-17.1-7-21.3s-10.7-7-18.1-8.5v-0.3
		c10.2-1.8,17.5-4.4,21.8-7.9s6.4-8,6.4-13.6c0-4.5-1.5-8.5-4.4-11.9c-2.9-3.5-6.4-5.7-10.5-6.9c-4-1.1-9.2-1.7-15.5-1.7H719v3.4
		h11.1c3.7,0,6.7,0.3,9,0.8c2.3,0.6,4.2,2,5.9,4.4c1.6,2.4,2.4,6.2,2.4,11.3c0,6.3-0.8,10.9-2.4,13.8c-1.6,2.9-3.7,4.7-6.4,5.4
		s-6.5,1-11.6,1h-8v3.1h4.4c8.7,0,14.3,1.9,16.8,5.7s3.7,7.7,3.7,11.6l-0.3,11.3c-0.1,3.9,1.4,7.9,4.3,11.9c3,4.1,8.1,6.1,15.3,6.1
		c3.5,0,7.2-0.7,11-2v-3.2C772.1,296.4,770.3,296.7,768.7,296.7z"/>
</g>
<g>
	<rect x="199.6" y="354.1" width="3.2" height="19.6"/>
	<path d="M211,366.3c2.7-0.8,4.7-2.7,4.7-6c0-3.8-2.8-6.2-7.3-6.2h-4.8v3.1h4.5c2.5,0,4.1,1.1,4.1,3.3c0,2-1.6,3.3-4,3.3h-4.5v3h3.8
		l4.8,6.8h4.1L211,366.3z"/>
</g>
<path d="M465.9,353.8v3.2c3.7,0.2,6.3,3.3,6.3,7c0,3.8-2.7,6.9-6.6,6.9s-6.7-3.2-6.7-7c0-3.7,2.6-6.7,6.3-6.9v-3.2
	c-5.8,0.2-9.9,4.7-9.9,10.1c0,5.5,4.2,10.1,10.2,10.1s10.3-4.6,10.3-10.1C475.8,358.5,471.7,354,465.9,353.8z"/>
<path d="M688.5,353.8v3.2c3.7,0.2,6.3,3.3,6.3,7c0,3.8-2.7,6.9-6.6,6.9s-6.7-3.2-6.7-7c0-3.7,2.6-6.7,6.3-6.9v-3.2
	c-5.8,0.2-9.9,4.7-9.9,10.1c0,5.5,4.2,10.1,10.2,10.1s10.3-4.6,10.3-10.1C698.4,358.5,694.3,354,688.5,353.8z"/>
<polygon points="640.6,411 640.6,394.3 635.7,394.3 624.5,411 624.5,415.5 635.1,415.5 635.1,411 629.9,411 635.8,402.3 
	635.8,406.9 635.8,406.9 635.8,420.8 640.6,420.8 640.6,415.5 642.9,415.5 642.9,411 "/>
<polygon points="608.2,411 608.2,394.3 603.3,394.3 592.1,411 592.1,415.5 602.7,415.5 602.7,411 597.5,411 603.4,402.3 603.4,411 
	603.4,411 603.4,415.5 603.4,415.5 603.4,420.8 608.2,420.8 608.2,415.5 610.5,415.5 610.5,411 "/>
<path d="M487.1,406.8c1.5-1.7,2.5-3.1,2.5-5.3c0-3.9-2.9-7.1-7.4-7.2v4.7c1.5,0.2,2.5,1.3,2.5,2.8c0,1.6-1,2.7-2.5,2.9v4.6
	c2,0.1,3.8,1.6,3.8,3.8s-1.7,3.6-4.1,3.6c-2.6,0-4.1-1.8-4.1-3.7c0-2,1.7-3.5,3.8-3.7v-4.6c-1.5-0.2-2.6-1.4-2.6-2.9s1-2.7,2.6-2.8
	v-4.7c-4.5,0.2-7.4,3.1-7.4,7.1c0,2.1,0.8,3.8,2.3,5.3c-2.4,1.8-3.6,3.9-3.6,6.7c0,3.5,1.9,6.3,5,7.4c1.5,0.5,2.5,0.6,4.1,0.6
	c5.9,0,8.9-3.6,8.9-8C490.8,410.8,489.5,408.3,487.1,406.8z"/>
<path d="M422.4,406.8c1.5-1.7,2.5-3.1,2.5-5.3c0-3.9-2.9-7.1-7.4-7.2v4.7c1.5,0.2,2.5,1.3,2.5,2.8c0,1.6-1,2.7-2.5,2.9v4.6
	c2,0.1,3.8,1.6,3.8,3.8s-1.7,3.6-4.1,3.6c-2.6,0-4.1-1.8-4.1-3.7c0-2,1.7-3.5,3.8-3.7v-4.6c-1.5-0.2-2.6-1.4-2.6-2.9s1-2.7,2.6-2.8
	v-4.7c-4.5,0.2-7.4,3.1-7.4,7.1c0,2.1,0.8,3.8,2.3,5.3c-2.4,1.8-3.6,3.9-3.6,6.7c0,3.5,1.9,6.3,5,7.4c1.5,0.5,2.5,0.6,4.1,0.6
	c5.9,0,8.9-3.6,8.9-8C426,410.8,424.7,408.3,422.4,406.8z"/>
</svg>
